<?xml version="1.0" encoding="utf-8"?>
<!-- Generator: Adobe Illustrator 18.0.0, SVG Export Plug-In . SVG Version: 6.00 Build 0)  -->
<!DOCTYPE svg PUBLIC "-//W3C//DTD SVG 1.1//EN" "http://www.w3.org/Graphics/SVG/1.1/DTD/svg11.dtd">
<svg version="1.1" id="Layer_1" xmlns="http://www.w3.org/2000/svg" xmlns:xlink="http://www.w3.org/1999/xlink" x="0px" y="0px"
	 viewBox="-162.6 162.2 652 228.6" enable-background="new -162.6 162.2 652 228.6" xml:space="preserve">
<g>
	<g>
		<path fill="#1888C6" d="M-162.6,274.5c0-4.7,1-8.8,2.9-12.2c1.9-3.5,4.7-6.4,8.2-8.9c3.5-2.4,7.7-4.5,12.7-6.1
			c4.9-1.6,10.3-2.8,16.2-3.7c5.9-0.9,12.2-1.5,19-1.8c6.8-0.3,13.7-0.5,20.9-0.5c9.7,0,19.8,0.4,30.4,1.1c10.6,0.7,21.6,2,33.1,3.9
			c2.7,0.5,4.5,1.4,5.6,2.8s1.6,2.8,1.6,4.5c0,1.2-0.3,2.4-0.8,3.6c-0.5,1.2-1.2,2.2-2,3.2s-1.8,1.8-2.9,2.4
			c-1.1,0.6-2.3,0.9-3.5,0.9c-4.3,0-8.7-0.3-13.4-0.8c-4.6-0.6-9.5-1.2-14.5-1.9c-5-0.7-10.2-1.4-15.6-2.1
			c-5.3-0.7-10.8-1.2-16.5-1.6c-1,7.2-2.4,14.4-4.3,21.5c-1.8,7.1-3.7,14.4-5.7,21.8c-1.9,7.4-3.9,14.9-5.8,22.3
			c-1.9,7.4-3.8,14.5-5.6,21.3c-1.8,6.8-3.4,13.1-4.9,18.8c-1.5,5.8-2.8,10.7-3.9,14.8c-0.5,1.9-1.2,3.6-2.1,5.1
			c-1,1.6-2,2.9-3.2,4.1c-1.2,1.1-2.4,2-3.7,2.7c-1.3,0.6-2.5,0.9-3.6,0.9c-3.3,0-6-0.8-8.1-2.3c-2.1-1.5-3.2-3.9-3.2-7.3
			c0-1.1,0.2-2.2,0.5-3.5c1.2-4.9,2.4-9.8,3.7-14.7c1.2-4.9,2.5-10,3.8-15.4c1.3-5.4,3-11,5.1-17c2.1-5.9,4.3-12.5,6.8-19.6
			c2.5-7.1,5.2-15.2,8.1-24c2.9-8.9,6.1-18.8,9.5-29.6c-2.9,0.2-5.9,0.5-9,0.8c-3,0.3-6,0.7-8.8,1.2c-2.9,0.5-5.6,1.1-8.1,1.9
			c-2.6,0.8-4.9,1.7-7,2.9c-2.1,1.2-3.8,2.6-5,4.2c-1.2,1.6-1.9,3.6-1.9,5.8c0,0.1-0.1,0.8-0.2,1.9c-0.1,1.2-0.6,2.4-1.4,3.8
			c-0.8,1.4-2,2.6-3.7,3.8c-1.7,1.1-4.1,1.7-7.3,1.7s-5.6-0.6-7.3-1.7c-1.7-1.1-3-2.3-3.8-3.7C-162,278.3-162.5,276.5-162.6,274.5z"
			/>
		<path fill="#1888C6" d="M-46.8,385.4c-5.2,0-9.7-1-13.6-2.9c-3.9-1.9-7.1-4.5-9.7-7.8c-2.6-3.3-4.5-7-5.8-11.3
			c-1.3-4.3-1.9-8.8-1.9-13.5c0-3.1,0.6-6.7,1.7-11c1.2-4.3,2.4-8,3.6-11.3c1.2-3.3,2.8-6.4,4.7-9.4c1.9-3,4.1-5.6,6.6-7.9
			c2.5-2.3,5.3-4.1,8.5-5.4c3.1-1.3,6.6-2,10.4-2c3.1,0,6,0.5,8.7,1.5c2.7,1,5,2.4,7,4.2s3.5,4,4.6,6.5c1.1,2.6,1.7,5.4,1.7,8.6
			c0,3.4-1.1,7.1-3.4,11.3c-2.3,4.2-4.9,7.8-7.9,10.8c-3,3-6.6,5.7-10.7,8c-4.2,2.3-8.6,4.2-13.5,5.5c0.8,1.5,1.7,2.7,2.5,3.7
			c0.8,1,1.6,1.7,2.5,2.3c0.8,0.5,1.7,0.9,2.6,1.1c0.9,0.2,1.9,0.3,3,0.3c3.3,0,6.9-0.7,10.5-2c3.7-1.3,7.3-2.9,10.8-4.9
			c3.5-2,6.8-4.1,9.9-6.4c3.1-2.3,5.8-4.5,7.9-6.6l10.8,10.9c-4.9,5.2-10.1,9.8-15.6,13.8c-2.4,1.7-5,3.4-7.7,5.1
			c-2.8,1.7-5.6,3.1-8.7,4.4c-3,1.3-6.2,2.3-9.4,3.1C-40.1,385-43.4,385.4-46.8,385.4z M-57.9,345.7c2,0,4.2-0.5,6.6-1.5
			c2.4-1,4.6-2.3,6.6-3.9c2-1.6,4-3.7,6-6.4c2-2.7,2.9-4.9,2.9-6.6c0-2.4-0.5-4.5-1.4-6c-0.9-1.6-2.1-2.4-3.4-2.4
			c-2.4,0-4.5,0.4-6.2,1.3c-1.7,0.9-3.1,2-4.3,3.4c-1.1,1.4-2.1,3-2.8,4.7c-0.7,1.8-1.5,4-2.4,6.6c-0.9,2.6-1.4,4.8-1.5,6.4
			C-57.8,343-57.9,344.5-57.9,345.7z"/>
		<path fill="#1888C6" d="M16.1,385.4c-5.2,0-9.7-1-13.6-2.9c-3.9-1.9-7.1-4.5-9.7-7.8c-2.6-3.3-4.5-7-5.8-11.3
			c-1.3-4.3-1.9-8.8-1.9-13.5c0-3.1,0.6-6.7,1.7-11c1.2-4.3,2.4-8,3.6-11.3c1.2-3.3,2.8-6.4,4.7-9.4c1.9-3,4.1-5.6,6.6-7.9
			c2.5-2.3,5.3-4.1,8.5-5.4c3.1-1.3,6.6-2,10.4-2c3.1,0,6,0.5,8.7,1.5c2.7,1,5,2.4,7,4.2c2,1.8,3.5,4,4.6,6.5
			c1.1,2.6,1.7,5.4,1.7,8.6c0,3.4-1.1,7.1-3.4,11.3c-2.3,4.2-4.9,7.8-7.9,10.8c-3,3-6.6,5.7-10.7,8c-4.2,2.3-8.6,4.2-13.5,5.5
			c0.8,1.5,1.7,2.7,2.5,3.7c0.8,1,1.6,1.7,2.5,2.3c0.8,0.5,1.7,0.9,2.6,1.1c0.9,0.2,1.9,0.3,3,0.3c3.3,0,6.9-0.7,10.5-2
			c3.7-1.3,7.3-2.9,10.8-4.9c3.5-2,6.8-4.1,9.9-6.4c3.1-2.3,5.8-4.5,7.9-6.6l10.8,10.9c-4.9,5.2-10.1,9.8-15.6,13.8
			c-2.4,1.7-5,3.4-7.7,5.1c-2.8,1.7-5.6,3.1-8.7,4.4c-3,1.3-6.2,2.3-9.4,3.1C22.8,385,19.5,385.4,16.1,385.4z M5,345.7
			c2,0,4.2-0.5,6.6-1.5c2.4-1,4.6-2.3,6.6-3.9c2-1.6,4-3.7,6-6.4c2-2.7,2.9-4.9,2.9-6.6c0-2.4-0.5-4.5-1.4-6
			c-0.9-1.6-2.1-2.4-3.4-2.4c-2.4,0-4.5,0.4-6.2,1.3c-1.7,0.9-3.1,2-4.3,3.4c-1.1,1.4-2.1,3-2.8,4.7c-0.7,1.8-1.5,4-2.4,6.6
			c-0.9,2.6-1.4,4.8-1.5,6.4C5,343,5,344.5,5,345.7z"/>
		<path fill="#1888C6" d="M51,368c0-3.7,0.2-7.9,0.7-12.7c0.4-4.8,1-10.1,1.7-15.8c0.7-5.8,1.4-10.9,2.3-15.6
			c0.8-4.6,1.6-8.6,2.4-11.8c0.6-2.6,1.8-4.7,3.5-6.4c1.8-1.7,4.1-2.6,7.1-2.6s5.1,0.9,6.3,2.8c1.2,1.8,1.8,4.3,1.8,7.3
			c0,0.8-0.1,2-0.3,3.4c-0.2,1.4-0.4,3-0.6,4.7c-0.3,1.7-0.5,3.4-0.8,5.3c-0.3,1.8-0.5,3.9-0.8,6.2c-0.3,2.3-0.5,4-0.6,5.2
			c-0.2,1.1-0.2,1.9-0.2,2.3H75c0.3-0.6,0.9-1.6,1.6-3c0.7-1.4,1.6-3.3,2.5-5.9c0.9-2.6,2-4.8,3-6.8c1.1-2,2.1-3.9,3-5.7
			c0.9-1.8,1.8-3.4,2.6-4.8c0.8-1.4,1.4-2.4,1.8-3.1c1.8-3,3.8-5.1,6.1-6.2c2.3-1.1,4.8-1.7,7.6-1.7c2.8,0,5,1.2,6.6,3.5
			c1.6,2.3,2.5,5.6,2.5,9.7c0,0.6-0.1,1.6-0.4,3.1c-0.3,1.4-0.6,3.2-1,5.2c-0.4,2-0.8,4.6-1.3,7.8c-0.5,3.2-0.9,6-1.3,8.5
			c-0.4,2.5-0.7,5-1,7.4c-0.2,2.4-0.4,4.7-0.4,6.8c0,3.4,0.4,6.3,1.3,8.5c0.9,2.2,2.2,3.3,4,3.3c0.7,0,1.6-0.2,2.8-0.8
			c1.8-0.7,3-1.3,3.5-1.8c2.4-1.9,3.7-2.8,3.8-2.8c0.2,0.1,2-1.1,5.6-3.3c4.4-2.8,9.8-6.3,15.9-10.4l-0.1,18.7l-4.2,3.2
			c-0.3,0.3-2.9,1.7-7.8,4.3c-7.1,3.8-11.5,6.1-13.3,6.8c-4.3,1.9-7,3.1-8.1,3.3c-2.8,0.9-5.7,1.3-8.8,1.3c-3.1,0-5.6-2.2-7.7-6.6
			c-2.1-4.4-3.1-10.9-3.1-19.4c0-3.3,0.2-6.9,0.7-10.8c0.4-3.9,1-8,1.7-12.5H92l-21.8,43.4c-1.2,2.3-2.4,3.9-3.8,4.7
			c-1.4,0.8-3,1.3-4.8,1.3c-2.3,0-4.1-0.5-5.5-1.5c-1.4-1-2.5-2.3-3.2-3.9c-0.8-1.6-1.3-3.5-1.5-5.6C51.1,372.3,51,370.2,51,368z"/>
	</g>
	<path fill="#1888C6" d="M259.2,364.7c-4.5,4.7-9.7,8.9-15.3,12.4c-5.7,3.6-11.6,6.5-17.8,8.9c-6.2,2.4-12.5,4.2-18.9,5.4
		c-6.4,1.2-12.6,1.8-18.6,1.8c-6.5,0-12.6-0.8-18.3-2.3c-5.7-1.5-10.7-3.8-15-6.9c-4.3-3.1-7.7-7-10.2-11.8
		c-2.5-4.7-3.8-10.4-3.8-16.9c0-5.7,1-11.1,3-16.4c2-5.2,5.1-9.9,9.4-13.9c4.2-4,9.6-7.3,16.2-9.8c6.6-2.5,14.5-3.8,23.7-4
		c-6.1,0-11.3-0.9-15.8-2.6c-4.5-1.8-8.3-4.1-11.2-7.1c-3-3-5.2-6.5-6.7-10.4c-1.5-4-2.2-8.2-2.2-12.6c0-4.2,0.7-8,2.2-11.4
		c1.4-3.4,3.4-6.5,5.9-9.3c2.5-2.7,5.5-5.2,8.9-7.2c3.4-2.1,7.2-3.8,11.2-5.1c4-1.4,8.2-2.4,12.6-3.1c4.4-0.7,8.8-1,13.3-1
		c6.6,0,13,0.7,19.2,2.1c6.3,1.4,11.9,3.5,16.7,6.4c4.9,2.8,8.8,6.4,11.8,10.6c3,4.2,4.5,9.2,4.5,14.9c0,2-0.7,4-2.1,5.9
		c-1.4,2-3,3.7-4.9,5.2c-1.9,1.5-3.9,2.8-6,3.7c-2.1,0.9-3.9,1.4-5.3,1.4c-1.2,0-1.8-1-1.8-3.1c0-1.8,0.3-4.2,0.9-7.1
		c0.6-2.9,1.6-6.5,3-10.9c-1.5-1.2-3.7-2.5-6.6-3.7c-2.9-1.2-6.2-2.3-9.9-3.3c-3.7-1-7.6-1.8-11.7-2.5c-4.1-0.6-8.2-1-12.3-1
		c-3.8,0-7.3,0.3-10.8,1c-3.4,0.7-6.4,1.8-9,3.3c-2.6,1.5-4.7,3.6-6.2,6.1c-1.5,2.5-2.3,5.6-2.3,9.3c0,3,0.5,5.5,1.6,7.6
		c1.1,2.1,2.6,3.8,4.4,5.3c1.8,1.4,3.9,2.6,6.3,3.5c2.4,0.9,4.8,1.7,7.3,2.5c2.5,0.7,5,1.4,7.5,2.1c2.4,0.7,4.7,1.4,6.8,2.3
		c2.1,0.9,3.8,2,5.2,3.2c1.4,1.3,2.3,2.8,2.8,4.7c0.1,1.2,0.2,2.4,0.3,3.7c0.1,1.2,0.2,2.4,0.2,3.6c0,3.4-0.6,5.8-1.8,7.4
		c-1.2,1.5-3.5,2.3-7,2.3c-1.5,0-3.3-0.1-5.5-0.2c-2.2-0.2-4.3-0.3-6.2-0.3c-4.4,0-8.7,0.6-13,1.7c-4.2,1.1-8,2.8-11.4,5
		c-3.4,2.2-6.1,4.9-8.1,8.1c-2.1,3.2-3.1,7-3.1,11.3c0,4.1,0.6,7.4,1.8,10.2c1.2,2.7,2.8,4.9,4.8,6.5c2,1.7,4.5,2.8,7.2,3.5
		c2.8,0.7,5.8,1.1,9,1.1c4,0,8.2-0.4,12.5-1.1c4.4-0.8,8.7-1.8,13.1-3.1c4.3-1.3,8.6-2.9,12.7-4.7c4.1-1.8,7.9-3.8,11.5-5.8
		c3.5-2.1,6.6-4.3,9.3-6.6c2.7-2.3,4.8-4.6,6.2-6.9L259.2,364.7z"/>
	<path fill="#1888C6" d="M250.8,367.9c0-2.4,0.1-5.3,0.4-8.5c0.3-3.3,0.7-6.7,1.1-10.3c0.5-3.6,1-7.3,1.7-11c0.6-3.8,1.5-7.8,2.5-12
		c1-4.3,1.9-7.8,2.6-10.6c0.7-2.8,1.4-5.2,2.2-7c0.4-1.2,0.9-2.2,1.3-2.9c0.4-0.7,1-1.3,1.5-1.7c0.6-0.4,1.3-0.7,2.2-0.8
		c0.9-0.1,1.9-0.2,3.2-0.2c1.4,0,2.6,0.1,3.4,0.2c0.8,0.1,1.4,0.5,1.8,1c0.4,0.5,0.6,1.3,0.7,2.3c0.1,1,0.1,2.4,0.1,4.1
		c0,2.1-0.1,5-0.4,8.8c-0.3,3.8-0.4,7.1-0.3,9.9h0.9c1.1-2.2,2.5-5.1,4.2-8.8c1.7-3.6,3.4-6.6,5.3-9c1.8-2.4,3.9-4.4,6.3-6
		c2.3-1.6,5-2.5,8.1-2.5c1.1,0,2.1,0.2,3.1,0.5c1,0.4,1.9,0.9,2.6,1.5c0.8,0.7,1.3,1.5,1.8,2.5c0.4,1,0.7,2.1,0.7,3.3
		c0,0.9-0.1,2.3-0.4,4c-0.3,1.7-0.7,3.9-1.3,6.6c-0.6,2.7-1.1,5-1.3,6.7c-0.3,1.8-0.4,3.2-0.4,4.4c0,2,0.2,3.7,0.6,5
		c0.4,1.3,0.9,2.4,1.5,3.2c0.6,0.8,1.4,1.4,2.2,1.7c0.8,0.3,1.7,0.5,2.5,0.5c2.5,0,5.1-0.6,7.8-1.7c2.7-1.1,5.1-2.4,7.3-3.8
		c2.6-1.6,5.2-3.4,7.7-5.5l-1.3,19.5c-1.4,0.9-3.1,2-4.9,3.2c-1.8,1.2-3.8,2.3-5.9,3.3c-2.1,1-4.3,1.9-6.5,2.6c-2.3,0.7-4.5,1-6.9,1
		c-4.2,0-7.5-0.8-10.1-2.5c-2.6-1.7-4.6-3.9-6.1-6.7c-1.5-2.8-2.6-5.8-3.3-9.3c-0.7-3.4-1.3-6.9-1.8-10.4h-1.3l-14.9,41.6
		c-0.8,2.2-1.5,4-2.2,5.4c-0.7,1.4-1.4,2.6-2.1,3.5c-0.7,0.9-1.5,1.5-2.3,1.9c-0.8,0.4-1.8,0.5-2.8,0.5c-2.3,0-4.1-0.5-5.5-1.5
		c-1.4-1-2.5-2.3-3.2-3.9c-0.8-1.6-1.3-3.5-1.5-5.6C251,372.3,250.8,370.1,250.8,367.9z"/>
	<path fill="#1888C6" d="M438.9,336.2c-5.9,47-52.6,49.1-55.6,49.1c-3.7,0-6.7-1.2-9.2-3.5c-2.5-2.3-4.6-5.7-6.3-10.1
		c-1.3,1.5-3,3.1-4.9,4.7c-1.9,1.6-4.1,3-6.4,4.3c-2.3,1.3-4.7,2.3-7.2,3.2c-2.5,0.8-5,1.2-7.5,1.2c-2.7,0-5.2-0.5-7.7-1.6
		c-2.5-1.1-4.7-2.6-6.7-4.7c-1.9-2-3.5-4.5-4.6-7.4c-1.2-2.9-1.7-6.2-1.7-9.9c0-4.1,0.6-8.4,1.8-12.7c1.2-4.3,3-9.1,5.4-14.1
		c2.4-5.1,5.1-9.4,7.9-13.1c2.8-3.7,5.9-6.9,9.2-9.7c3.3-2.8,6.9-4.9,10.5-6.6c3.7-1.6,7.5-2.4,11.3-2.4c1.3,0,2.3,0.3,3,0.8
		c0.7,0.5,1.3,1.1,1.8,1.7c0.5,0.6,0.9,1.3,1.4,1.9c0.4,0.6,1,1.1,1.7,1.3c0.7,0.3,1.3,0.5,2,0.5c0.7,0.1,1.4,0.1,2.1,0.1
		c0.6,0,1.2,0,1.9,0s1.3,0,1.9,0c0.8,0,1.6,0.1,2.3,0.3c0.7,0.2,1.4,0.5,1.9,1.1c0.6,0.6,1,1.3,1.3,2.3c0.3,1,0.5,2.4,0.5,4.1
		c0,2.6-0.3,5.6-0.8,8.8c-0.6,3.2-1.2,6.5-1.9,9.9c-0.7,3.4-1.5,7.2-2.4,11.6c-0.9,4.3-1.4,8-1.4,10.9c0,2.5,0.6,5,1.8,5.9
		c13.9,11.5,44.2-19.9,39.8-32.5C419.6,319.1,438.9,336.2,438.9,336.2z M342.1,357.9c0,1.4,0.1,2.8,0.3,4.1c0.2,1.3,0.5,2.5,1,3.6
		c0.5,1.1,1.2,1.9,2,2.6c0.8,0.7,1.9,1,3.2,1c2,0,3.9-0.9,5.6-2.7c1.7-1.8,3.1-3.9,4.3-6.4c1.2-2.5,2.2-5.1,2.9-7.8
		c0.7-2.7,1.2-4.9,1.5-6.7l6.2-26.9c-2.3,0-4.5,0.6-6.6,1.7c-2.2,1.1-4.2,2.6-6.1,4.6c-1.9,1.9-3.7,4.1-5.3,6.6
		c-1.6,2.5-3.2,5.5-4.7,9.1c-1.5,3.6-2.6,6.8-3.3,9.5C342.4,352.9,342.1,355.5,342.1,357.9z"/>
	<g>
		<g>
			<path fill="#1888C6" d="M421.6,326.5c0,4.3,17.3,0,17.3,0"/>
			<g>
				<g>
					<g>
						<path fill="#EFE350" d="M481.5,188.6c-10.7-18.8-29-25.4-49.8-26.3c-3.6-0.4-7.2,0.3-10.7,0.9c-24.1,4.3-41,19.3-45.2,41
							c-4.3,22,1.2,41.4,16.9,57.5c4,4.1,5.7,8.4,5.6,13.8c-0.1,4.6-0.4,9.2-0.1,13.8c0.2,3.3-0.3,7,3.3,9.2c1,0,1.9-0.1,2.9-0.1
							c4,0,8-0.2,12.1-0.1c2.5,0.1,3.1-0.5,2.6-3.2c-4.2-21.2-8.2-42.5-12.4-63.7c-0.5-2.8-0.7-5.1,1.4-7.5c2-2.3,3-5.5,4.9-8.1
							c2.5-3.4,4.8-3.2,7,0.4c0.7,1.1,0.9,2.4,1.6,3.5c0.7,1.3,0.2,3.7,2.2,3.6c1.7-0.1,1.8-2.4,2.4-3.8c1.1-2.7,2.1-5.4,5.6-5.8
							c5.7,0.7,4.5,6.7,7.2,9.7c2.2-1.4,2.4-3.7,3.4-5.6c1.3-2.5,3.2-4.2,6.1-3.9c2.8,0.3,3.5,2.7,4,5c0.6,2.7,1.2,5.2,3.6,7.1
							c1.7,1.3,0.7,3.5,0.4,5.3c-4,22.3-8.1,44.6-12.2,66.8c6.1,0,12.2,0,18.3,0.1c2.8-2.5,2.7-5.9,2.8-9.1c0.1-5.2,0-10.3-0.1-15.5
							c0-4.4,1.5-8,4.8-11.1c4.2-3.9,7.8-8.5,10.5-13.6C491.5,229.1,492.8,208.4,481.5,188.6z"/>
						<path fill="#EFE350" d="M446.5,223.6c-1.7,1.1-2,3.3-2.7,5.1c-0.8,2-2.1,3.7-4.4,3.8c-2.5,0.1-4-1.5-5.2-3.5
							c-1-1.8-0.9-4-2.5-5.5c-0.1-0.1-0.2-0.2-0.3-0.3c-0.1,0-0.3,0.1-0.3,0.1c-0.5,1.4-0.8,2.9-1.4,4.3c-0.9,2.3-1.8,4.8-4.8,4.9
							c-3.2,0.1-4.9-2-6.1-4.6c-0.8-1.7-0.8-3.7-2.4-5.1c-3,5.2-4.9,10.1-3.2,16.5c2.7,10.5,4.1,21.3,6.3,31.9
							c1.8,8.8,2.9,17.8,5.5,26.5c-0.1,0.1-0.1,0.3,0,0.5c4.6,0,9.3-0.1,13.9-0.1c3.1-16.4,6.2-32.9,9.1-49.3
							C449.5,240.4,453.2,231.7,446.5,223.6z"/>
					</g>
				</g>
			</g>
		</g>
		<path fill="#1888C6" d="M454.2,314.8c0.2-0.2,0.5-0.3,0.8-0.5c1.7-0.9,4.5-1.2,5-3.1c0,0,0,0,0,0c0-0.1,0-0.2,0.1-0.3
			c0-0.1,0-0.2,0-0.2c0,0,0-0.1,0-0.1c0,0,0,0,0-0.1c0,0,0-0.1,0-0.1c0,0,0-0.1,0-0.1c-0.1-0.9-0.8-1.5-1.7-1.9
			c-0.3-0.2-0.5-0.4-0.8-0.5c-1.2-1-1.9-2.5-1.9-4.1h-3.2h-41.2h-3.2c-0.1,1.6-0.7,3.2-1.9,4.1c-0.2,0.2-0.5,0.4-0.8,0.5
			c-0.9,0.4-1.6,1-1.7,1.9c0,0,0,0.1,0,0.1c0,0,0,0.1,0,0.1c0,0,0,0,0,0.1c0,0,0,0.1,0,0.1c0,0.1,0,0.2,0,0.2c0,0.1,0,0.2,0.1,0.3
			c0,0,0,0,0,0c0.5,1.9,3.3,2.2,5,3.1c0.3,0.2,0.6,0.3,0.8,0.5c1.6,1.2,1.4,2.4-0.5,3.8c-1.5,1.1-2.2,2-2.3,2.9
			c-0.5,1.4,0.4,2.6,2.9,3.9c3.2,1.5,4,3.4,0.7,5.8c-2.1,1.5-1.9,2.8,0.4,4.1c3.1,1.6,6.2,3.1,9.5,3.9c1.5,0.3,2.9,0.6,4.3,0.8
			c2.4,0.4,4.8,0.6,7.2,0.6c2.4,0,4.8-0.2,7.2-0.6c1.4-0.2,2.9-0.5,4.3-0.8c3.4-0.8,6.5-2.2,9.5-3.9c2.3-1.2,2.5-2.5,0.4-4.1
			c-3.2-2.4-2.5-4.3,0.7-5.8c2.6-1.2,3.5-2.5,2.9-3.9c-0.1-0.9-0.8-1.9-2.3-2.9C452.8,317.2,452.5,316,454.2,314.8z"/>
	</g>
	<path fill="#1888C6" d="M396.1,320.6"/>
	<path fill="#1888C6" d="M440.9,194"/>
</g>
</svg>
